<svg xmlns="http://www.w3.org/2000/svg" viewBox="0 0 207.2 207.33"><defs><style>.cls-1{fill:#f5fafb;}.cls-2{fill:#c9cdd1;}</style></defs><title>Logolightgray</title><g id="Layer_2" data-name="Layer 2"><g id="Layer_2-2" data-name="Layer 2"><g id="Layer_3" data-name="Layer 3"><path class="cls-1" d="M49.6,15.15V99.33H0A103.62,103.62,0,0,1,49.46,15.24Z"/><path class="cls-1" d="M102.6.12V99.33H58.27V10.61l.15-.28A103.18,103.18,0,0,1,102.47,0Z"/><path class="cls-1" d="M191.38,48.48A103.62,103.62,0,0,0,109.74.17L109.6.3V48.66h81.7Z"/><line class="cls-2" x1="109.6" y1="0.17" x2="109.6" y2="0.3"/><path class="cls-1" d="M195.38,55.66H109.6V99.33h97.58v0a103.26,103.26,0,0,0-11.6-43.59Z"/><path class="cls-1" d="M32.13,178.75a103.69,103.69,0,0,0,166.54-33.68V145H154.6v-8.66H202l.05-.05a103.27,103.27,0,0,0,5.17-28.88l-.06-.07H109.6v71.33H32.24Z"/><path class="cls-1" d="M.11,107.33H102.6v64.33H25.52l-.27-.12A103.5,103.5,0,0,1,8.55,145.1l0-.11H58.27v-8.66h-53l-.12-.09A103.41,103.41,0,0,1,0,107.4Z"/></g></g></g></svg>